<svg width="42" height="42" viewBox="0 0 42 42" fill="none" xmlns="http://www.w3.org/2000/svg">
<circle cx="21" cy="21" r="20.5" stroke="white"/>
<path d="M21 21.25C20.2583 21.25 19.5333 21.0301 18.9166 20.618C18.2999 20.206 17.8193 19.6203 17.5355 18.9351C17.2516 18.2498 17.1774 17.4958 17.3221 16.7684C17.4668 16.041 17.8239 15.3728 18.3484 14.8484C18.8728 14.3239 19.541 13.9668 20.2684 13.8221C20.9958 13.6774 21.7498 13.7516 22.4351 14.0355C23.1203 14.3193 23.706 14.7999 24.118 15.4166C24.5301 16.0333 24.75 16.7583 24.75 17.5C24.75 18.4946 24.3549 19.4484 23.6517 20.1517C22.9484 20.8549 21.9946 21.25 21 21.25ZM21 15.25C20.555 15.25 20.12 15.382 19.75 15.6292C19.38 15.8764 19.0916 16.2278 18.9213 16.639C18.751 17.0501 18.7064 17.5025 18.7932 17.939C18.8801 18.3754 19.0943 18.7763 19.409 19.091C19.7237 19.4057 20.1246 19.62 20.561 19.7068C20.9975 19.7936 21.4499 19.749 21.861 19.5787C22.2722 19.4084 22.6236 19.12 22.8708 18.75C23.118 18.38 23.25 17.945 23.25 17.5C23.25 16.9033 23.0129 16.331 22.591 15.909C22.169 15.4871 21.5967 15.25 21 15.25Z" fill="white"/>
<path d="M28 28.25C27.8019 28.2474 27.6126 28.1676 27.4725 28.0275C27.3324 27.8874 27.2526 27.6981 27.25 27.5C27.25 25.55 26.19 24.25 21 24.25C15.81 24.25 14.75 25.55 14.75 27.5C14.75 27.6989 14.671 27.8897 14.5303 28.0303C14.3897 28.171 14.1989 28.25 14 28.25C13.8011 28.25 13.6103 28.171 13.4697 28.0303C13.329 27.8897 13.25 27.6989 13.25 27.5C13.25 22.75 18.68 22.75 21 22.75C23.32 22.75 28.75 22.75 28.75 27.5C28.7474 27.6981 28.6676 27.8874 28.5275 28.0275C28.3874 28.1676 28.1981 28.2474 28 28.25Z" fill="white"/>
</svg>
